<?xml version="1.0" encoding="utf-8"?>
<!-- Generator: Adobe Illustrator 19.1.0, SVG Export Plug-In . SVG Version: 6.00 Build 0)  -->
<svg version="1.1" id="Capa_2" xmlns="http://www.w3.org/2000/svg" xmlns:xlink="http://www.w3.org/1999/xlink" x="0px" y="0px"
	 viewBox="0 0 12.8 58.1" enable-background="new 0 0 12.8 58.1" xml:space="preserve">
<g>
	<g>
		<path fill="#E5A64F" d="M3.8,54.5c-0.1,0-0.2,0-0.2-0.1c-0.1-0.1-0.2-0.2-0.3-0.3c-0.2-0.2-0.3-0.5-0.4-0.9
			c-0.1-0.3-0.1-0.7-0.1-1c0-0.5,0.1-0.9,0.3-1.4c0.2-0.4,0.5-0.8,0.8-1.2c0.3-0.3,0.7-0.6,1.2-0.8c0.4-0.2,0.9-0.3,1.4-0.3
			c0.5,0,0.9,0.1,1.4,0.3c0.4,0.2,0.8,0.4,1.2,0.8c0.3,0.3,0.6,0.7,0.8,1.2c0.2,0.4,0.3,0.9,0.3,1.4c0,0.5-0.1,1-0.3,1.4
			c-0.2,0.4-0.4,0.8-0.8,1.2c-0.3,0.3-0.7,0.6-1.2,0.8c-0.4,0.2-0.9,0.3-1.4,0.3c-0.6,0-1.1-0.1-1.5-0.3c-0.4-0.2-0.6-0.5-0.6-0.9
			c0-0.1,0-0.2,0.1-0.3c0-0.1,0.1-0.2,0.2-0.3c-0.1-0.1-0.1-0.1-0.1-0.2c0-0.1,0-0.2,0-0.2c0-0.3,0.1-0.8,0.4-1.4
			c0.2-0.6,0.6-1.2,1-1.8c0.2-0.3,0.4-0.5,0.6-0.6c0.2-0.1,0.4-0.2,0.6-0.2H7c0.1,0,0.2,0,0.2,0.1c0,0,0.1,0.1,0.1,0.2
			c0,0.2,0,0.4-0.1,0.6c-0.1,0.2-0.2,0.3-0.3,0.5c-0.2,0-0.3,0.1-0.4,0.1c-0.1,0.1-0.2,0.1-0.2,0.2c-0.2,0.3-0.4,0.6-0.5,0.9
			c-0.1,0.3-0.2,0.5-0.2,0.7c0,0.1,0,0.1,0,0.2c0,0.1,0.1,0.1,0.1,0.2l0,0.1c-0.1,0.3-0.2,0.5-0.4,0.8c-0.2,0.2-0.3,0.3-0.4,0.3
			c0,0-0.1,0-0.1,0c0,0-0.1,0-0.1-0.1c0,0.1-0.1,0.1-0.1,0.2c0,0.1,0,0.1,0,0.2c0,0.3,0.2,0.5,0.5,0.7c0.3,0.2,0.7,0.3,1.2,0.3
			c0.5,0,0.9-0.1,1.3-0.2c0.4-0.2,0.8-0.4,1.1-0.7c0.3-0.3,0.6-0.7,0.7-1.1c0.2-0.4,0.2-0.8,0.2-1.3c0-0.4-0.1-0.8-0.3-1.2
			c-0.2-0.4-0.4-0.7-0.7-1.1c-0.3-0.3-0.7-0.5-1.1-0.7c-0.4-0.2-0.8-0.2-1.2-0.2c-0.4,0-0.9,0.1-1.3,0.2c-0.4,0.2-0.7,0.4-1.1,0.7
			c-0.3,0.3-0.6,0.7-0.7,1.1c-0.2,0.4-0.3,0.8-0.3,1.3c0,0.4,0.1,0.7,0.2,1.1c0.1,0.3,0.4,0.7,0.6,1l0,0l0,0
			C3.9,54.5,3.9,54.5,3.8,54.5z M6,53.3c0.1,0.1,0.2,0.2,0.3,0.2c0.1,0.1,0.1,0.1,0.1,0.2c0,0.2-0.1,0.3-0.3,0.6
			c-0.2,0.2-0.3,0.3-0.5,0.3c0,0-0.1,0-0.2,0c-0.1,0-0.2-0.1-0.3-0.1c0.2-0.1,0.4-0.3,0.5-0.5C5.8,53.8,5.9,53.6,6,53.3z M7.5,49.7
			c0.2,0,0.3,0.1,0.4,0.2C8,50,8,50.1,8,50.2c0,0.2-0.1,0.4-0.2,0.6c-0.1,0.2-0.2,0.3-0.4,0.3c0,0-0.1,0-0.2,0c-0.1,0-0.1,0-0.2-0.1
			c0.1-0.1,0.2-0.3,0.3-0.5C7.5,50.2,7.5,50,7.5,49.7z"/>
	</g>
	<path fill="none" stroke="#E5A64F" stroke-width="0.5" stroke-miterlimit="10" d="M6.3,2.4l-4,2.9c0,0,1.2,0,1.4,0
		c0,0.2,0,3.1,0,3.1h2V6c0-0.4,0.3-0.7,0.7-0.7c0.4,0,0.7,0.3,0.7,0.7v2.3h2.1c0,0,0-2.9,0-3.1c0.2,0,1.3,0,1.3,0L6.3,2.4L6.3,2.4z
		 M6.4,2.5C6.5,2.6,9.5,4.8,9.9,5C9.6,5,9,5,9,5s0,2.9,0,3.1c-0.2,0-1.5,0-1.7,0c0-0.2,0-2.1,0-2.1c0-0.5-0.4-0.9-0.9-0.9
		C5.9,5.1,5.5,5.5,5.5,6c0,0,0,2,0,2.1c-0.2,0-1.5,0-1.6,0c0-0.2,0-3.1,0-3.1s-0.7,0-1,0C3.3,4.8,6.3,2.6,6.4,2.5z"/>
	<g>
		<g>
			<path fill="#E5A64F" stroke="#E5A64F" stroke-width="0.5" stroke-miterlimit="10" d="M3.1,36h6.5v4.9H3.1V36z M5.4,38.4l-2.2-2.2
				v4.3L5.4,38.4z M3.4,36.2L6.3,39c0,0,0.1,0,0.1,0c0,0,0.1,0,0.1,0l2.9-2.9H3.4z M7.2,38.5l-0.6,0.6c-0.1,0.1-0.1,0.1-0.2,0.1
				c-0.1,0-0.2,0-0.2-0.1l-0.6-0.6l-2.2,2.2h5.9L7.2,38.5z M7.3,38.4l2.2,2.2v-4.3L7.3,38.4z"/>
		</g>
	</g>
	<g>
		<path fill="#E5A64F" d="M8.9,21.9c0,1.1,0,2.2,0,3.2c0,0.2,0,0.4-0.1,0.6c-0.2,0.5-0.5,0.8-1.1,0.8c-1,0-2,0-3,0
			c-0.4,0-0.7-0.3-0.9-0.7c-0.1-0.2-0.1-0.4-0.1-0.6c0-2.2,0-4.4,0-6.6c0-0.2,0-0.4,0.1-0.5c0.2-0.5,0.5-0.8,1-0.8
			c0.9,0,1.9,0,2.8,0c0.8,0,1.2,0.5,1.2,1.3C8.9,19.8,8.9,20.8,8.9,21.9C8.9,21.9,8.9,21.9,8.9,21.9z M4.4,22c0,0.8,0,1.6,0,2.4
			c0,0.3,0.1,0.5,0.5,0.5c1,0,2,0,3,0c0.4,0,0.5-0.1,0.5-0.5c0-1.6,0-3.1,0-4.7c0-0.4-0.1-0.5-0.5-0.5c-1,0-2,0-3,0
			c-0.4,0-0.5,0.1-0.5,0.5C4.4,20.4,4.4,21.2,4.4,22z M6.4,18.6L6.4,18.6c0.2,0,0.3,0,0.5,0c0.2,0,0.3-0.1,0.4-0.3
			c0-0.2-0.2-0.3-0.3-0.3c-0.3,0-0.7,0-1,0c-0.2,0-0.3,0.1-0.3,0.3c0,0.2,0.2,0.3,0.3,0.3C6,18.6,6.2,18.6,6.4,18.6z M6.4,26
			c0.2,0,0.3-0.1,0.3-0.3c0-0.2-0.1-0.3-0.3-0.3c-0.2,0-0.3,0.1-0.3,0.3C6.1,25.8,6.2,26,6.4,26z"/>
	</g>
</g>
</svg>
