<?xml version="1.0" encoding="utf-8"?>
<!-- Generator: Adobe Illustrator 19.1.0, SVG Export Plug-In . SVG Version: 6.00 Build 0)  -->
<svg version="1.1" id="Capa_1" xmlns="http://www.w3.org/2000/svg" xmlns:xlink="http://www.w3.org/1999/xlink" x="0px" y="0px"
	 viewBox="0 0 157 74.5" enable-background="new 0 0 157 74.5" xml:space="preserve">
<g>
	<radialGradient id="SVGID_1_" cx="33.2269" cy="28.9916" r="41.6165" gradientUnits="userSpaceOnUse">
		<stop  offset="0" style="stop-color:#255163"/>
		<stop  offset="1" style="stop-color:#010302"/>
	</radialGradient>
	<path fill="url(#SVGID_1_)" d="M51.7,24.7c0,0,0.5-8.8-6.1-14.2c-0.8-0.7-2.1,2.5-2.1,2.5l-2.3,8.9c0,0,1.8-0.1,2,0.1
		c2.7,2.2,2.6,6.6,1.7,9.5c-1.2,4.2-5.8,15-24.4,14.4c13.7,1.5,21.3-0.3,29.9-14.1C50.6,28.9,51.7,24.7,51.7,24.7z"/>
	<path fill="#DC9E53" d="M7.6,12.6c-5.3,7.8-5.2,20.2,4.5,26.7c11.8,8,23.7-1.1,23.7-1.1s-25.8-3-26.5-19.8
		C9.4,14,12.4,4.4,24.4,2.8c0.5-0.3,1-0.6,1.4-0.8C17.9,2.7,10.8,7.3,7.6,12.6z"/>
	<radialGradient id="SVGID_2_" cx="36.8923" cy="14.0466" r="12.3208" gradientUnits="userSpaceOnUse">
		<stop  offset="0.5455" style="stop-color:#4FA9C2"/>
		<stop  offset="1" style="stop-color:#2D79B5"/>
	</radialGradient>
	<path fill="url(#SVGID_2_)" d="M47.5,12.2C41.2,3.9,33.2,1.3,25.9,2c-0.5,0.3-0.9,0.6-1.4,0.8c0.9-0.1,1.7-0.2,2.7-0.2
		c0,0,8.8,0.3,11.8,4.5c2.6,3.6,3,8.4,0,14.6c5.5,5.9,7.1,4.3,7.1,4.3S52.5,19.7,47.5,12.2z"/>
	<radialGradient id="SVGID_3_" cx="18.2317" cy="21.5679" r="49.1657" gradientUnits="userSpaceOnUse">
		<stop  offset="5.970348e-03" style="stop-color:#010302"/>
		<stop  offset="0.3403" style="stop-color:#343236"/>
	</radialGradient>
	<path fill="url(#SVGID_3_)" d="M30.7,2.8c-2.1-0.3-4.2-0.3-6.2,0C24,3,23.6,3.3,23.1,3.5C23.6,3.3,24,3,24.5,2.8
		C17.8,3.7,12,7.5,9.6,15.3c-0.9,4.2-1.4,13.6,14.3,20c-2.5-1-4.9-5.2-5.8-7.5c-4-10.8,5.4-19.9,15.5-18.3c2.5,0.4,5.7,1.6,7.5,3.5
		C40.5,9.9,39.9,3.9,30.7,2.8z"/>
	<linearGradient id="SVGID_4_" gradientUnits="userSpaceOnUse" x1="8.5682" y1="36.0492" x2="51.8981" y2="36.0492">
		<stop  offset="0" style="stop-color:#C02D2D"/>
		<stop  offset="0.4909" style="stop-color:#9A2428"/>
		<stop  offset="1" style="stop-color:#7F2022"/>
	</linearGradient>
	<path fill="url(#SVGID_4_)" d="M8.6,39.5c0,0,5.9,12.9,25.8,9.5c0,0,20.3-5.5,17.2-26.5c-1.2,10.8-7.1,20.7-19.8,22.8
		C17.2,47.6,10.8,42.8,8.6,39.5z"/>
	<g>
		<path fill="#555B63" d="M112.3,49.4H102V25L89.9,39.1h-1L76.7,25v24.5h-9.9V7.2h7.9L89.5,23l14.9-15.8h7.9V49.4z"/>
		<path fill="#555B63" d="M152.9,20.5c0,1.6-0.3,3.1-0.8,4.6c-0.5,1.5-1.4,2.9-2.6,4.2c-1.2,1.3-2.8,2.3-4.9,3.1
			c-2,0.8-4.4,1.2-7.2,1.2h-6.5v15.8H120V7.2h17.4c2.8,0,5.2,0.4,7.2,1.2c2,0.8,3.7,1.9,4.9,3.2c1.2,1.3,2.1,2.7,2.6,4.2
			C152.6,17.3,152.9,18.9,152.9,20.5z M139.9,20.5c0-2-0.6-3.4-1.8-4.1c-1.2-0.7-1.5-1.1-4.5-1.1h-2.7v10.2h2.7c2.1,0,1.9-0.1,3-0.4
			c1.1-0.3,2-0.8,2.5-1.5S139.9,21.9,139.9,20.5z"/>
	</g>
	<g>
		<path fill="#262323" d="M10.3,63.5h0.9v6.9h-1V65l-2.1,2.6H7.9L5.8,65v5.3h-1v-6.9h0.9L8,66.3L10.3,63.5z"/>
		<path fill="#262323" d="M19.4,68.1h-3.2c0,0.4,0.2,0.8,0.4,1c0.3,0.3,0.6,0.4,1,0.4c0.6,0,1.1-0.2,1.6-0.5v0.9
			c-0.3,0.2-0.5,0.3-0.8,0.4c-0.3,0.1-0.6,0.1-0.9,0.1c-0.5,0-0.9-0.1-1.2-0.3c-0.3-0.2-0.6-0.5-0.7-0.8c-0.2-0.3-0.3-0.8-0.3-1.2
			c0-0.7,0.2-1.2,0.6-1.7c0.4-0.4,0.9-0.6,1.5-0.6c0.6,0,1.1,0.2,1.4,0.6c0.4,0.4,0.5,1,0.5,1.7V68.1z M16.2,67.6h2.3
			c0-0.4-0.1-0.6-0.3-0.8c-0.2-0.2-0.4-0.3-0.8-0.3c-0.3,0-0.6,0.1-0.8,0.3C16.4,67,16.3,67.2,16.2,67.6z"/>
		<path fill="#262323" d="M26.2,67.6v1.9c0,0.2,0.1,0.2,0.2,0.2c0.1,0,0.3-0.1,0.5-0.2V70c-0.2,0.1-0.4,0.2-0.5,0.3
			c-0.1,0-0.3,0.1-0.4,0.1c-0.4,0-0.6-0.1-0.7-0.5c-0.4,0.3-0.8,0.4-1.2,0.4c-0.3,0-0.6-0.1-0.8-0.3c-0.2-0.2-0.3-0.5-0.3-0.8
			c0-0.3,0.1-0.5,0.3-0.8c0.2-0.2,0.5-0.4,0.9-0.5l1.1-0.4v-0.2c0-0.5-0.3-0.8-0.8-0.8c-0.5,0-1,0.3-1.4,0.8v-1
			c0.3-0.4,0.8-0.6,1.5-0.6c0.5,0,0.9,0.1,1.2,0.4c0.1,0.1,0.2,0.2,0.3,0.3c0.1,0.1,0.1,0.3,0.1,0.4C26.2,67,26.2,67.2,26.2,67.6z
			 M25.3,69.4v-1.3l-0.6,0.2c-0.3,0.1-0.5,0.2-0.6,0.4c-0.1,0.1-0.2,0.3-0.2,0.5c0,0.2,0.1,0.3,0.2,0.5c0.1,0.1,0.3,0.2,0.5,0.2
			C24.8,69.8,25.1,69.6,25.3,69.4z"/>
		<path fill="#262323" d="M30,66.5l1.7-1.6v0.9h1.4v0.8h-1.4v2.2c0,0.5,0.2,0.8,0.6,0.8c0.3,0,0.7-0.1,1-0.3v0.8
			c-0.3,0.2-0.7,0.3-1.1,0.3c-0.4,0-0.7-0.1-1-0.4c-0.1-0.1-0.2-0.2-0.2-0.2c-0.1-0.1-0.1-0.2-0.1-0.4c0-0.1-0.1-0.4-0.1-0.8v-2
			L30,66.5L30,66.5z"/>
		<path fill="#262323" d="M47.2,70.3l-0.8-0.9c-0.1,0.1-0.2,0.2-0.4,0.3l0,0c-0.2,0.2-0.5,0.4-0.9,0.5c-0.3,0.1-0.7,0.2-1,0.2
			c-0.5,0-0.9-0.2-1.2-0.5c-0.3-0.3-0.5-0.7-0.5-1.1c0-0.3,0.1-0.6,0.2-0.9c0.2-0.3,0.4-0.5,0.8-0.8l0,0c0.2-0.2,0.4-0.3,0.6-0.4
			c-0.5-0.6-0.8-1.1-0.8-1.6c0-0.5,0.2-0.8,0.5-1.1c0.3-0.3,0.7-0.4,1.2-0.4c0.5,0,0.9,0.1,1.2,0.4c0.3,0.3,0.5,0.6,0.5,1.1
			c0,0.6-0.4,1.2-1.2,1.7l-0.1,0.1l1,1.1c0.3-0.3,0.5-0.7,0.7-1.1h1c-0.2,0.6-0.6,1.2-1.1,1.8l1.4,1.6H47.2z M45.6,68.9l0.2-0.2
			l-1.1-1.3l-0.4,0.3c-0.5,0.3-0.8,0.7-0.8,1c0,0.2,0.1,0.4,0.3,0.5c0.2,0.1,0.4,0.2,0.6,0.2c0.2,0,0.4-0.1,0.6-0.2
			C45.2,69.2,45.4,69.1,45.6,68.9z M44.9,66.2l0.4-0.3c0.3-0.2,0.5-0.5,0.5-0.9c0-0.2-0.1-0.4-0.2-0.5c-0.1-0.1-0.3-0.2-0.6-0.2
			c-0.2,0-0.4,0.1-0.5,0.2c-0.1,0.1-0.2,0.3-0.2,0.5c0,0.2,0.1,0.4,0.2,0.6C44.6,65.9,44.7,66.1,44.9,66.2z"/>
		<path fill="#262323" d="M58,70.3v-6.9h2.2c0.7,0,1.2,0.2,1.6,0.5c0.4,0.4,0.6,0.8,0.6,1.4c0,0.4-0.1,0.8-0.3,1.1
			c-0.2,0.3-0.5,0.5-0.8,0.7c-0.3,0.1-0.8,0.2-1.5,0.2H59v3H58z M60,64.3h-1v2.1h1.1c0.4,0,0.7-0.1,0.9-0.3c0.2-0.2,0.3-0.5,0.3-0.8
			C61.3,64.7,60.9,64.3,60,64.3z"/>
		<path fill="#262323" d="M68.9,67.6v1.9c0,0.2,0.1,0.2,0.2,0.2c0.1,0,0.3-0.1,0.5-0.2V70c-0.2,0.1-0.4,0.2-0.5,0.3
			c-0.1,0-0.3,0.1-0.4,0.1c-0.4,0-0.6-0.1-0.7-0.5c-0.4,0.3-0.8,0.4-1.2,0.4c-0.3,0-0.6-0.1-0.8-0.3c-0.2-0.2-0.3-0.5-0.3-0.8
			c0-0.3,0.1-0.5,0.3-0.8c0.2-0.2,0.5-0.4,0.9-0.5l1.1-0.4v-0.2c0-0.5-0.3-0.8-0.8-0.8c-0.5,0-1,0.3-1.4,0.8v-1
			c0.3-0.4,0.8-0.6,1.5-0.6c0.5,0,0.9,0.1,1.2,0.4c0.1,0.1,0.2,0.2,0.3,0.3c0.1,0.1,0.1,0.3,0.1,0.4C68.9,67,68.9,67.2,68.9,67.6z
			 M68,69.4v-1.3l-0.6,0.2c-0.3,0.1-0.5,0.2-0.6,0.4c-0.1,0.1-0.2,0.3-0.2,0.5c0,0.2,0.1,0.3,0.2,0.5c0.1,0.1,0.3,0.2,0.5,0.2
			C67.5,69.8,67.8,69.6,68,69.4z"/>
		<path fill="#262323" d="M76.7,69.3v0.9c-0.4,0.2-0.9,0.2-1.3,0.2c-0.7,0-1.3-0.2-1.7-0.6c-0.4-0.4-0.6-1-0.6-1.7
			c0-0.7,0.2-1.3,0.6-1.7c0.4-0.4,0.9-0.7,1.6-0.7c0.2,0,0.4,0,0.6,0.1c0.2,0,0.4,0.1,0.7,0.2v1c-0.5-0.3-0.9-0.4-1.3-0.4
			c-0.4,0-0.7,0.1-1,0.4C74.1,67.2,74,67.6,74,68c0,0.5,0.1,0.8,0.4,1.1c0.3,0.3,0.7,0.4,1.1,0.4C75.9,69.6,76.3,69.5,76.7,69.3z"/>
		<path fill="#262323" d="M80.8,63.5h0.9v6.9h-0.9V63.5z M83.7,65.8h1.1L82.8,68l2.3,2.3H84L81.7,68L83.7,65.8z"/>
		<path fill="#262323" d="M89.1,63.9c0.1,0,0.3,0.1,0.4,0.2c0.1,0.1,0.2,0.2,0.2,0.4c0,0.1-0.1,0.3-0.2,0.4
			c-0.1,0.1-0.2,0.2-0.4,0.2c-0.1,0-0.3-0.1-0.4-0.2c-0.1-0.1-0.2-0.2-0.2-0.4c0-0.1,0.1-0.3,0.2-0.4C88.8,64,88.9,63.9,89.1,63.9z
			 M88.6,65.8h0.9v4.5h-0.9V65.8z"/>
		<path fill="#262323" d="M94.7,65.8v0.6c0.4-0.4,0.9-0.7,1.4-0.7c0.3,0,0.5,0.1,0.8,0.2s0.4,0.3,0.6,0.6c0.1,0.3,0.2,0.7,0.2,1.2
			v2.6h-0.9v-2.6c0-0.5-0.1-0.8-0.2-1c-0.1-0.2-0.4-0.3-0.7-0.3c-0.4,0-0.8,0.2-1.1,0.6v3.2h-0.9v-4.5H94.7z"/>
		<path fill="#262323" d="M101.6,67.4c0-0.5,0.2-0.9,0.5-1.1c0.4-0.3,0.8-0.4,1.4-0.4h1.9v0.7h-0.9c0.2,0.2,0.3,0.3,0.4,0.5
			c0.1,0.1,0.1,0.3,0.1,0.5c0,0.2-0.1,0.5-0.2,0.7c-0.1,0.2-0.3,0.4-0.5,0.5s-0.6,0.2-1,0.3c-0.3,0-0.5,0.2-0.5,0.3
			c0,0.1,0.1,0.2,0.2,0.3c0.1,0.1,0.4,0.1,0.7,0.2c0.6,0.1,0.9,0.2,1.1,0.3c0.2,0.1,0.3,0.2,0.4,0.3c0.2,0.2,0.3,0.5,0.3,0.8
			c0,0.4-0.2,0.8-0.6,1c-0.4,0.3-0.9,0.4-1.5,0.4c-0.6,0-1.2-0.1-1.5-0.4c-0.4-0.3-0.6-0.6-0.6-1c0-0.6,0.4-1,1.1-1.2
			c-0.3-0.2-0.5-0.4-0.5-0.6c0-0.1,0.1-0.3,0.2-0.4c0.1-0.1,0.3-0.2,0.5-0.3C101.9,68.5,101.6,68,101.6,67.4z M103.1,70.5
			c-0.3,0-0.5,0.1-0.7,0.2c-0.2,0.1-0.3,0.3-0.3,0.5c0,0.5,0.4,0.7,1.3,0.7c0.4,0,0.7-0.1,0.9-0.2c0.2-0.1,0.3-0.3,0.3-0.5
			c0-0.2-0.1-0.4-0.4-0.5C103.9,70.6,103.5,70.5,103.1,70.5z M103.3,66.6c-0.2,0-0.4,0.1-0.6,0.2c-0.2,0.2-0.3,0.4-0.3,0.6
			c0,0.2,0.1,0.4,0.2,0.6c0.2,0.2,0.4,0.2,0.6,0.2c0.3,0,0.5-0.1,0.6-0.2c0.2-0.2,0.3-0.3,0.3-0.6c0-0.2-0.1-0.4-0.3-0.6
			C103.8,66.7,103.5,66.6,103.3,66.6z"/>
		<path fill="#262323" d="M118.8,66.9h2.3v2.9c-0.8,0.4-1.7,0.5-2.5,0.5c-1.1,0-2-0.3-2.7-1c-0.7-0.7-1-1.5-1-2.4
			c0-1,0.4-1.9,1.1-2.6c0.7-0.7,1.6-1,2.6-1c0.4,0,0.8,0,1.1,0.1c0.3,0.1,0.8,0.2,1.3,0.5v1c-0.8-0.5-1.6-0.7-2.4-0.7
			c-0.7,0-1.4,0.3-1.9,0.8c-0.5,0.5-0.8,1.1-0.8,1.9c0,0.8,0.3,1.4,0.8,1.9c0.5,0.5,1.2,0.7,2,0.7c0.4,0,0.9-0.1,1.4-0.3l0.1,0v-1.4
			h-1.3V66.9z"/>
		<path fill="#262323" d="M126.4,65.8v1l0-0.1c0.4-0.7,0.9-1,1.3-1c0.3,0,0.7,0.2,1.1,0.5l-0.5,0.8c-0.3-0.3-0.6-0.4-0.9-0.4
			c-0.3,0-0.5,0.1-0.7,0.4c-0.2,0.3-0.3,0.6-0.3,1v2.4h-0.9v-4.5H126.4z"/>
		<path fill="#262323" d="M134.3,65.8c0.7,0,1.3,0.2,1.7,0.7c0.5,0.4,0.7,1,0.7,1.7c0,0.7-0.2,1.2-0.7,1.6s-1,0.6-1.7,0.6
			c-0.7,0-1.2-0.2-1.7-0.7c-0.5-0.4-0.7-1-0.7-1.6c0-0.7,0.2-1.2,0.7-1.7C133,66,133.6,65.8,134.3,65.8z M134.2,66.6
			c-0.4,0-0.8,0.1-1.1,0.4s-0.4,0.6-0.4,1.1c0,0.4,0.1,0.8,0.4,1.1c0.3,0.3,0.6,0.4,1.1,0.4c0.4,0,0.8-0.1,1.1-0.4
			c0.3-0.3,0.4-0.6,0.4-1.1c0-0.4-0.1-0.8-0.4-1.1C135.1,66.7,134.7,66.6,134.2,66.6z"/>
		<path fill="#262323" d="M143.6,70.3v-0.6c-0.2,0.2-0.4,0.4-0.6,0.5c-0.2,0.1-0.5,0.2-0.7,0.2c-0.3,0-0.5-0.1-0.8-0.2
			c-0.2-0.1-0.4-0.3-0.5-0.6c-0.1-0.2-0.2-0.6-0.2-1.2v-2.6h0.9v2.6c0,0.5,0.1,0.8,0.2,1c0.1,0.2,0.4,0.3,0.7,0.3
			c0.4,0,0.8-0.2,1.1-0.6v-3.2h0.9v4.5H143.6z"/>
		<path fill="#262323" d="M148.7,72.6v-6.8h1.6c0.8,0,1.4,0.2,1.9,0.6c0.4,0.4,0.7,1,0.7,1.7c0,0.7-0.2,1.2-0.6,1.7
			c-0.4,0.4-1,0.7-1.6,0.7c-0.3,0-0.6-0.1-1-0.2v2.4H148.7z M150.2,66.6h-0.6v2.8c0.3,0.1,0.6,0.2,0.9,0.2c0.4,0,0.8-0.1,1-0.4
			c0.3-0.3,0.4-0.7,0.4-1.1c0-0.3-0.1-0.6-0.2-0.8c-0.1-0.2-0.3-0.4-0.5-0.5C150.9,66.7,150.6,66.6,150.2,66.6z"/>
	</g>
</g>
</svg>
